<?xml version="1.0" encoding="UTF-8"?>
<svg xmlns="http://www.w3.org/2000/svg" xmlns:xlink="http://www.w3.org/1999/xlink" xmlns:svgjs="http://svgjs.com/svgjs" version="1.1" width="512" height="512" x="0" y="0" viewBox="0 0 24 24" style="enable-background:new 0 0 512 512" xml:space="preserve" class="">
  <g>
    <g data-name="Layer 1">
      <path d="M19.793 21c-.583.048-1.983-.991-2.278-1.18a14.474 14.474 0 0 0-1.7-1 14.469 14.469 0 0 1-3.818.5c-6.064 0-11-3.662-11-8.164S5.936 3 12 3s11 3.663 11 8.164a7.425 7.425 0 0 1-3.594 6.044 8.04 8.04 0 0 0 .491 1.261c.375.833.732 1.655.527 2.091a.852.852 0 0 1-.271.326.835.835 0 0 1-.36.114zM15.8 17.815c.391 0 .953.335 2.249 1.163.4.254.929.594 1.317.812a14.518 14.518 0 0 0-.386-.911c-.483-1.074-.9-2-.256-2.422A6.494 6.494 0 0 0 22 11.164C22 7.214 17.514 4 12 4S2 7.214 2 11.164s4.485 7.164 10 7.164a13.421 13.421 0 0 0 3.634-.49.623.623 0 0 1 .166-.023z" fill="#ffffff" data-original="#000000" class=""></path>
      <path d="M12 12.5a1.5 1.5 0 1 1 1.5-1.5 1.5 1.5 0 0 1-1.5 1.5zm0-2a.5.5 0 1 0 .5.5.5.5 0 0 0-.5-.5zM17 12.5a1.5 1.5 0 1 1 1.5-1.5 1.5 1.5 0 0 1-1.5 1.5zm0-2a.5.5 0 1 0 .5.5.5.5 0 0 0-.5-.5zM7 12.5A1.5 1.5 0 1 1 8.5 11 1.5 1.5 0 0 1 7 12.5zm0-2a.5.5 0 1 0 .5.5.5.5 0 0 0-.5-.5z" fill="#ffffff" data-original="#000000" class=""></path>
    </g>
  </g>
</svg>
