<?xml version="1.0" encoding="UTF-8"?>
<svg xmlns="http://www.w3.org/2000/svg" id="Layer_1" height="512" viewBox="0 0 256 256" width="512">
  <g>
    <g>
      <path d="m190.03 124.549c-1.104 0-2-.896-2-2v-22.301c0-14.632-11.904-26.536-26.536-26.536h-89.685c-14.632 0-26.536 11.904-26.536 26.536v22.301c0 1.104-.896 2-2 2s-2-.896-2-2v-22.301c0-16.838 13.698-30.536 30.536-30.536h89.685c16.837 0 30.536 13.698 30.536 30.536v22.301c0 1.105-.896 2-2 2z" fill="#3762cc"></path>
    </g>
    <g>
      <g>
        <path d="m37.787 204.89c-2.23 0-4.037-1.807-4.037-4.037v-13.822c0-9.353 7.609-16.962 16.962-16.962h139.003c9.353 0 16.962 7.609 16.962 16.962v11.147c0 2.23-1.807 4.037-4.037 4.037s-4.037-1.808-4.037-4.037v-11.147c0-4.901-3.987-8.888-8.888-8.888h-139.003c-4.901 0-8.888 3.987-8.888 8.888v13.822c0 2.23-1.807 4.037-4.037 4.037z" fill="#a4c9ff"></path>
      </g>
    </g>
    <g>
      <g>
        <path d="m37.787 206.89c-3.329 0-6.037-2.708-6.037-6.038v-13.822c0-10.456 8.506-18.962 18.962-18.962h139.003c10.456 0 18.962 8.506 18.962 18.962v11.147c0 3.329-2.708 6.037-6.038 6.037s-6.037-2.708-6.037-6.037v-11.147c0-3.798-3.09-6.887-6.888-6.887h-139.002c-3.798 0-6.888 3.089-6.888 6.887v13.822c0 3.33-2.708 6.038-6.037 6.038zm12.925-34.821c-8.25 0-14.962 6.712-14.962 14.962v13.822c0 1.124.914 2.038 2.037 2.038s2.037-.914 2.037-2.038v-13.822c0-6.003 4.884-10.887 10.888-10.887h139.003c6.003 0 10.888 4.884 10.888 10.887v11.147c0 1.123.914 2.037 2.037 2.037 1.124 0 2.038-.914 2.038-2.037v-11.147c0-8.25-6.712-14.962-14.962-14.962z" fill="#3762cc"></path>
      </g>
    </g>
    <g>
      <path d="m174.476 158.888-57.049-23.303-57.049 23.303c-9.614 23.486-6.032 50.312 9.409 70.452l.191.249c11.315 14.758 28.853 23.411 47.449 23.411 18.597 0 36.134-8.653 47.449-23.412l.191-.249c15.441-20.14 19.024-46.965 9.409-70.451z" fill="#e0ebfc"></path>
    </g>
    <g>
      <path d="m133.632 216.525h-32.41c-2.942 0-5.327-2.385-5.327-5.327v-18.392c0-2.942 2.385-5.327 5.327-5.327h32.41c2.942 0 5.327 2.385 5.327 5.327v18.392c0 2.942-2.385 5.327-5.327 5.327z" fill="#f9a7a7"></path>
    </g>
    <g>
      <path d="m117.427 255c-19.09 0-37.421-9.045-49.037-24.195l-.19-.249c-15.812-20.623-19.518-48.375-9.673-72.426.204-.497.598-.891 1.095-1.094l57.049-23.303c.485-.198 1.027-.198 1.513 0l57.049 23.303c.497.203.891.597 1.095 1.094 9.845 24.051 6.139 51.803-9.673 72.427l-.19.248c-11.616 15.15-29.947 24.195-49.038 24.195zm-55.509-94.581c-8.915 22.558-5.323 48.426 9.457 67.704l.19.249c10.864 14.169 28.008 22.628 45.862 22.628s34.999-8.459 45.862-22.628l.19-.248c14.78-19.278 18.372-45.146 9.457-67.704l-55.51-22.674z" fill="#3762cc"></path>
    </g>
    <g>
      <path d="m133.632 218.525h-32.41c-4.04 0-7.327-3.287-7.327-7.327v-18.392c0-4.04 3.287-7.327 7.327-7.327h32.41c4.04 0 7.327 3.287 7.327 7.327v18.392c0 4.04-3.287 7.327-7.327 7.327zm-32.409-29.046c-1.834 0-3.327 1.492-3.327 3.327v18.392c0 1.834 1.493 3.327 3.327 3.327h32.41c1.834 0 3.327-1.492 3.327-3.327v-18.392c0-1.834-1.492-3.327-3.327-3.327z" fill="#3762cc"></path>
    </g>
    <g>
      <path d="m189.663 142.474h-146.3c-4.814 0-8.716-3.902-8.716-8.716v-23.263c0-4.814 3.902-8.716 8.716-8.716h146.3c4.814 0 8.716 3.902 8.716 8.716v23.263c-.001 4.814-3.903 8.716-8.716 8.716z" fill="#4671c6"></path>
    </g>
    <g>
      <path d="m189.663 144.474h-146.3c-5.909 0-10.716-4.807-10.716-10.716v-23.263c0-5.909 4.807-10.715 10.716-10.715h146.3c5.909 0 10.716 4.807 10.716 10.715v23.263c-.001 5.909-4.808 10.716-10.716 10.716zm-146.3-40.694c-3.703 0-6.716 3.013-6.716 6.715v23.263c0 3.703 3.013 6.716 6.716 6.716h146.3c3.703 0 6.716-3.013 6.716-6.716v-23.263c0-3.703-3.013-6.715-6.716-6.715z" fill="#3762cc"></path>
    </g>
    <g>
      <path d="m128.986 116.431h-23.116v-39.16c0-6.383 5.175-11.558 11.558-11.558 6.383 0 11.558 5.175 11.558 11.558z" fill="#e0ebfc"></path>
    </g>
    <g>
      <path d="m117.427 67.712c-1.104 0-2-.896-2-2v-11.713c0-1.104.896-2 2-2s2 .896 2 2v11.713c0 1.105-.895 2-2 2z" fill="#3762cc"></path>
    </g>
    <g>
      <circle cx="117.427" cy="45" fill="#f9a7a7" r="9"></circle>
    </g>
    <g>
      <path d="m128.986 118.432h-23.117c-1.104 0-2-.896-2-2v-39.161c0-7.476 6.082-13.558 13.558-13.558s13.559 6.082 13.559 13.558v39.161c0 1.104-.896 2-2 2zm-21.117-4h19.117v-37.161c0-5.271-4.288-9.558-9.559-9.558s-9.558 4.288-9.558 9.558z" fill="#3762cc"></path>
    </g>
    <g>
      <path d="m117.427 55.999c-6.065 0-11-4.935-11-11s4.935-11 11-11 11 4.935 11 11-4.934 11-11 11zm0-17.999c-3.859 0-7 3.14-7 7s3.14 7 7 7 7-3.14 7-7-3.14-7-7-7z" fill="#3762cc"></path>
    </g>
    <g>
      <path d="m154.242 165.085h-75.458c-16.815 0-30.446-13.631-30.446-30.446v-25.024c0-16.815 13.631-30.446 30.446-30.446h75.458c16.815 0 30.446 13.631 30.446 30.446v25.024c-.001 16.815-13.632 30.446-30.446 30.446z" fill="#e0ebfc"></path>
    </g>
    <g>
      <path d="m78.784 150.281c-8.625 0-15.643-7.017-15.643-15.643v-25.024c0-8.625 7.017-15.643 15.643-15.643h75.458c8.625 0 15.643 7.017 15.643 15.643v25.024c0 8.625-7.017 15.643-15.643 15.643z" fill="#6bdddd"></path>
    </g>
    <g>
      <path d="m154.242 167.084h-75.458c-17.891 0-32.446-14.555-32.446-32.445v-25.024c0-17.891 14.555-32.446 32.446-32.446h75.458c17.891 0 32.446 14.555 32.446 32.446v25.024c-.001 17.891-14.556 32.445-32.446 32.445zm-75.458-85.915c-15.685 0-28.446 12.761-28.446 28.446v25.024c0 15.685 12.761 28.445 28.446 28.445h75.458c15.685 0 28.446-12.761 28.446-28.445v-25.024c0-15.685-12.761-28.446-28.446-28.446z" fill="#3762cc"></path>
    </g>
    <g>
      <path d="m154.242 152.281h-75.458c-9.728 0-17.643-7.914-17.643-17.642v-25.024c0-9.728 7.915-17.643 17.643-17.643h75.458c9.729 0 17.643 7.915 17.643 17.643v25.024c0 9.728-7.915 17.642-17.643 17.642zm-75.458-56.308c-7.522 0-13.643 6.12-13.643 13.643v25.024c0 7.522 6.12 13.642 13.643 13.642h75.458c7.523 0 13.643-6.12 13.643-13.642v-25.024c0-7.522-6.12-13.643-13.643-13.643z" fill="#3762cc"></path>
    </g>
    <g>
      <path d="m91.387 133.407c-4.063 0-7.357-3.294-7.357-7.357v-7.847c0-4.063 3.294-7.357 7.357-7.357 4.063 0 7.357 3.294 7.357 7.357v7.847c0 4.064-3.294 7.357-7.357 7.357z" fill="#4671c6"></path>
    </g>
    <g>
      <path d="m143.467 133.407c-4.063 0-7.357-3.294-7.357-7.357v-7.847c0-4.063 3.294-7.357 7.357-7.357 4.063 0 7.357 3.294 7.357 7.357v7.847c0 4.064-3.294 7.357-7.357 7.357z" fill="#4671c6"></path>
    </g>
    <g>
      <g>
        <path d="m175.255 3h50.269c6.308 0 11.421 5.113 11.421 11.421v34.571c0 6.308-5.114 11.421-11.421 11.421h-32.195l-11.037 11.037c-.744.744-2.006.116-1.862-.926l1.398-10.111h-6.572c-6.308 0-11.421-5.113-11.421-11.421v-34.571c-.001-6.308 5.112-11.421 11.42-11.421z" fill="#a4c9ff"></path>
      </g>
      <g>
        <circle cx="221.209" cy="31.707" fill="#e0ebfc" r="4.621"></circle>
      </g>
      <g>
        <circle cx="200.389" cy="31.707" fill="#e0ebfc" r="4.621"></circle>
      </g>
      <g>
        <circle cx="179.57" cy="31.707" fill="#e0ebfc" r="4.621"></circle>
      </g>
      <g>
        <path d="m181.517 73.772c-.468 0-.94-.106-1.379-.324-1.193-.593-1.872-1.878-1.689-3.198l1.083-7.837h-4.277c-7.4 0-13.421-6.021-13.421-13.421v-34.571c0-7.4 6.021-13.421 13.421-13.421h50.269c7.4 0 13.421 6.021 13.421 13.421v34.571c0 7.4-6.021 13.421-13.421 13.421h-31.367l-10.451 10.451c-.595.595-1.387.908-2.189.908zm-6.262-68.772c-5.195 0-9.421 4.227-9.421 9.421v34.571c0 5.195 4.227 9.421 9.421 9.421h6.572c.578 0 1.128.25 1.508.686s.553 1.015.473 1.588l-1.029 7.448 9.136-9.136c.375-.375.884-.586 1.414-.586h32.195c5.195 0 9.421-4.226 9.421-9.421v-34.571c0-5.195-4.227-9.421-9.421-9.421z" fill="#3762cc"></path>
      </g>
      <g>
        <path d="m221.208 38.328c-3.651 0-6.621-2.97-6.621-6.621 0-3.65 2.97-6.621 6.621-6.621s6.621 2.97 6.621 6.621c.001 3.65-2.97 6.621-6.621 6.621zm0-9.242c-1.445 0-2.621 1.176-2.621 2.621s1.176 2.621 2.621 2.621 2.621-1.176 2.621-2.621c.001-1.445-1.175-2.621-2.621-2.621z" fill="#3762cc"></path>
      </g>
      <g>
        <path d="m200.389 38.328c-3.65 0-6.621-2.97-6.621-6.621 0-3.65 2.97-6.621 6.621-6.621s6.621 2.97 6.621 6.621c0 3.65-2.97 6.621-6.621 6.621zm0-9.242c-1.445 0-2.621 1.176-2.621 2.621s1.176 2.621 2.621 2.621 2.621-1.176 2.621-2.621-1.176-2.621-2.621-2.621z" fill="#3762cc"></path>
      </g>
      <g>
        <path d="m179.57 38.328c-3.651 0-6.621-2.97-6.621-6.621 0-3.65 2.97-6.621 6.621-6.621s6.621 2.97 6.621 6.621c0 3.65-2.97 6.621-6.621 6.621zm0-9.242c-1.445 0-2.621 1.176-2.621 2.621s1.176 2.621 2.621 2.621 2.621-1.176 2.621-2.621-1.175-2.621-2.621-2.621z" fill="#3762cc"></path>
      </g>
    </g>
    <g>
      <circle cx="37.787" cy="206.626" fill="#4671c6" r="12.686"></circle>
    </g>
    <g>
      <path d="m37.787 221.313c-8.098 0-14.687-6.588-14.687-14.687s6.588-14.687 14.687-14.687 14.687 6.588 14.687 14.687-6.589 14.687-14.687 14.687zm0-25.374c-5.893 0-10.687 4.794-10.687 10.687s4.794 10.687 10.687 10.687 10.687-4.794 10.687-10.687-4.794-10.687-10.687-10.687z" fill="#3762cc"></path>
    </g>
    <g>
      <circle cx="202.64" cy="206.626" fill="#4671c6" r="12.686"></circle>
    </g>
    <g>
      <path d="m202.64 221.313c-8.098 0-14.686-6.588-14.686-14.687s6.588-14.687 14.686-14.687 14.687 6.588 14.687 14.687-6.589 14.687-14.687 14.687zm0-25.374c-5.892 0-10.686 4.794-10.686 10.687s4.794 10.687 10.686 10.687c5.893 0 10.687-4.794 10.687-10.687s-4.795-10.687-10.687-10.687z" fill="#3762cc"></path>
    </g>
  </g>
</svg>
